HIERARCHY
ROOT Joint1
{
	OFFSET 0.000000 0.000000 0.000000
	CHANNELS 6 Xposition Yposition Zposition Xrotation Yrotation Zrotation
	JOINT Joint2
	{
		OFFSET -0.000000 0.000000 1.456275
		CHANNELS 6 Xposition Yposition Zposition Xrotation Yrotation Zrotation
		JOINT Joint3
		{
			OFFSET -0.000000 0.000002 1.471446
			CHANNELS 6 Xposition Yposition Zposition Xrotation Yrotation Zrotation
			JOINT Joint4
			{
				OFFSET 0.625745 0.000000 0.917755
				CHANNELS 6 Xposition Yposition Zposition Xrotation Yrotation Zrotation
				JOINT Joint5
				{
					OFFSET -0.629534 0.000001 0.940221
					CHANNELS 6 Xposition Yposition Zposition Xrotation Yrotation Zrotation
					JOINT Joint6
					{
						OFFSET -0.000001 0.113772 1.960660
						CHANNELS 6 Xposition Yposition Zposition Xrotation Yrotation Zrotation
						JOINT Joint7
						{
							OFFSET -0.669733 -0.113771 0.388340
							CHANNELS 6 Xposition Yposition Zposition Xrotation Yrotation Zrotation
							End Site
							{
								OFFSET 0.005509 0.005509 0.438980
							}
						}
					}
				}
			}
		}
	}
}
MOTION
Frames: 17
Frame Time: 0.041667
0.000000 0.000000 0.000000 -0.000000 1.019410 0.007528 -0.000000 0.000000 1.456275 -0.000000 -44.963549 -0.000000 -0.000000 0.000002 1.471446 0.000000 -1.133461 -0.045041 0.625745 0.000000 0.917755 0.000004 135.034356 -0.000001 -0.629534 0.000001 0.940221 0.000000 1.709736 -0.045874 -0.000001 0.113772 1.960660 -88.275086 90.006512 0.018542 -0.669733 -0.113771 0.388340 -0.705801 3.566198 134.999577 
0.000000 0.000000 0.000000 -0.000000 1.019410 0.029339 -0.000000 0.000000 1.456275 -0.000000 -44.900981 -0.000000 -0.000000 0.000002 1.471446 0.000000 -1.133456 -0.084543 0.625744 0.000000 0.917755 0.000004 135.056746 -0.000001 -0.629534 0.000001 0.940221 0.000000 1.709737 -0.140731 -0.000000 0.113772 1.960660 -88.301915 90.100509 0.001189 -0.669733 -0.113771 0.388340 -0.707186 3.566197 135.077578 
0.000000 0.000000 0.000000 -0.000000 1.019410 0.064679 -0.000000 0.000000 1.456275 0.000000 -44.799604 -0.000000 -0.000000 0.000002 1.471446 -0.000000 -1.133463 -0.148545 0.625745 0.000000 0.917755 0.000004 135.093014 -0.000001 -0.629534 0.000001 0.940221 0.000000 1.709736 -0.294419 -0.000001 0.113772 1.960660 -88.303144 90.252795 0.000455 -0.669733 -0.113771 0.388341 -0.709431 3.566191 135.203963 
0.000000 0.000000 0.000000 -0.000000 1.019410 0.112718 -0.000000 0.000000 1.456275 -0.000000 -44.661811 0.000000 -0.000000 0.000002 1.471446 0.000000 -1.133459 -0.235544 0.625745 0.000000 0.917755 0.000004 135.142314 -0.000001 -0.629533 0.000001 0.940221 0.000000 1.709736 -0.503333 -0.000001 0.113772 1.960660 -88.303472 90.459818 0.000285 -0.669733 -0.113771 0.388340 -0.712483 3.566176 135.375770 
0.000000 0.000000 0.000000 -0.000000 1.019410 0.172626 -0.000000 0.000000 1.456275 0.000000 -44.489960 -0.000000 -0.000000 0.000002 1.471445 0.000000 -1.133459 -0.344041 0.625744 0.000000 0.917755 0.000004 135.203786 -0.000001 -0.629533 0.000001 0.940221 0.000000 1.709737 -0.763868 -0.000001 0.113772 1.960660 -88.303623 90.717985 0.000181 -0.669733 -0.113771 0.388341 -0.716289 3.566144 135.590033 
0.000000 0.000000 0.000000 -0.000000 1.019410 0.243575 -0.000000 0.000000 1.456275 -0.000000 -44.286445 -0.000000 -0.000000 0.000002 1.471445 0.000000 -1.133462 -0.472533 0.625745 0.000000 0.917755 0.000004 135.276596 -0.000001 -0.629534 0.000001 0.940221 0.000000 1.709736 -1.072419 -0.000000 0.113772 1.960661 -88.303684 91.023739 0.000114 -0.669733 -0.113771 0.388340 -0.720794 3.566088 135.843747 
0.000000 0.000000 0.000000 -0.000000 1.019410 0.324737 -0.000000 -0.000000 1.456275 -0.000000 -44.053631 -0.000000 -0.000000 0.000002 1.471446 -0.000000 -1.133459 -0.619519 0.625745 0.000000 0.917755 0.000004 135.359897 -0.000001 -0.629534 0.000001 0.940221 0.000000 1.709736 -1.425379 -0.000001 0.113772 1.960661 -88.303732 91.373485 0.000084 -0.669733 -0.113771 0.388341 -0.725949 3.565998 136.134003 
0.000000 0.000000 0.000000 -0.000000 1.019410 0.415280 -0.000000 -0.000000 1.456275 -0.000000 -43.793909 -0.000000 -0.000000 0.000002 1.471446 -0.000000 -1.133461 -0.783498 0.625744 0.000000 0.917755 0.000004 135.452801 -0.000001 -0.629534 0.000001 0.940221 0.000000 1.709736 -1.819144 -0.000001 0.113772 1.960660 -88.303773 91.763680 0.000065 -0.669733 -0.113771 0.388340 -0.731699 3.565869 136.457836 
0.000000 0.000000 0.000000 -0.000000 1.019410 0.514378 -0.000000 0.000000 1.456275 -0.000000 -43.509644 -0.000000 -0.000000 0.000002 1.471446 -0.000000 -1.133462 -0.962968 0.625745 0.000000 0.917756 0.000003 135.554516 -0.000001 -0.629534 0.000001 0.940221 0.000000 1.709737 -2.250109 -0.000000 0.113772 1.960661 -88.303800 92.190731 0.000051 -0.669733 -0.113771 0.388340 -0.737993 3.565690 136.812254 
0.000000 0.000000 0.000000 -0.000000 1.019410 0.621201 -0.000000 0.000000 1.456275 -0.000000 -43.203218 -0.000000 -0.000000 0.000002 1.471445 -0.000000 -1.133461 -1.156427 0.625745 0.000000 0.917755 0.000004 135.664141 -0.000001 -0.629534 0.000001 0.940221 0.000000 1.709736 -2.714668 -0.000001 0.113772 1.960660 -88.303814 92.651072 0.000037 -0.669733 -0.113771 0.388340 -0.744774 3.565453 137.194267 
0.000000 0.000000 0.000000 -0.000000 1.019410 0.734919 -0.000000 0.000000 1.456275 0.000000 -42.877018 -0.000000 -0.000000 0.000002 1.471446 0.000000 -1.133458 -1.362375 0.625744 0.000000 0.917755 0.000003 135.780841 -0.000001 -0.629533 0.000001 0.940221 0.000000 1.709736 -3.209215 -0.000001 0.113772 1.960660 -88.303834 93.141125 0.000028 -0.669733 -0.113771 0.388340 -0.751991 3.565151 137.600964 
0.000000 0.000000 0.000000 -0.000000 1.019410 0.854704 -0.000000 0.000000 1.456275 0.000000 -42.533418 -0.000000 -0.000000 0.000002 1.471446 0.000000 -1.133460 -1.579310 0.625745 0.000000 0.917755 0.000003 135.903757 -0.000001 -0.629533 0.000001 0.940221 0.000000 1.709736 -3.730145 -0.000001 0.113772 1.960661 -88.303841 93.657330 0.000027 -0.669733 -0.113771 0.388339 -0.759592 3.564779 138.029353 
0.000000 0.000000 0.000000 -0.000000 1.019410 0.979726 -0.000000 -0.000000 1.456275 0.000000 -42.174793 -0.000000 -0.000000 0.000002 1.471446 -0.000000 -1.133462 -1.805731 0.625744 0.000000 0.917755 0.000004 136.032069 -0.000001 -0.629534 0.000001 0.940221 0.000000 1.709737 -4.273853 -0.000001 0.113772 1.960660 -88.303834 94.196102 0.000036 -0.669733 -0.113771 0.388340 -0.767520 3.564329 138.476485 
0.000000 0.000000 0.000000 -0.000000 1.019410 1.109925 -0.000000 -0.000000 1.456275 -0.000000 -41.801318 -0.000000 -0.000000 0.000002 1.471446 -0.000000 -1.133464 -2.041527 0.625745 0.000000 0.917755 0.000004 136.165681 -0.000001 -0.629534 0.000001 0.940221 0.000000 1.709737 -4.840076 -0.000001 0.113772 1.960661 -88.303848 94.757188 0.000023 -0.669733 -0.113771 0.388340 -0.775774 3.563793 138.942126 
0.000000 0.000000 0.000000 -0.000000 1.019410 1.248315 -0.000000 0.000000 1.456275 0.000000 -41.404344 0.000000 -0.000000 0.000002 1.471445 0.000000 -1.133458 -2.292154 0.625744 0.000000 0.917755 0.000003 136.307708 -0.000001 -0.629534 0.000001 0.940221 0.000000 1.709736 -5.441914 -0.000002 0.113772 1.960661 -88.303855 95.353559 0.000026 -0.669733 -0.113771 0.388340 -0.784541 3.563154 139.437055 
0.000000 0.000000 0.000000 -0.000000 1.019410 1.398674 -0.000000 0.000000 1.456275 0.000000 -40.973041 -0.000000 -0.000000 0.000002 1.471446 0.000000 -1.133460 -2.564461 0.625744 0.000000 0.917755 0.000004 136.462016 -0.000001 -0.629534 0.000001 0.940221 0.000000 1.709737 -6.095808 -0.000001 0.113772 1.960661 -88.303848 96.001519 0.000021 -0.669733 -0.113771 0.388340 -0.794060 3.562371 139.974782 
0.000000 0.000000 0.000000 -0.000000 1.019410 1.564784 -0.000000 0.000000 1.456275 -0.000000 -40.496557 0.000000 -0.000000 0.000002 1.471446 0.000000 -1.133459 -2.865293 0.625744 0.000000 0.917755 0.000003 136.632484 -0.000001 -0.629533 0.000001 0.940221 0.000000 1.709737 -6.818202 -0.000000 0.113772 1.960660 -88.303855 96.717350 0.000023 -0.669733 -0.113771 0.388340 -0.804567 3.561403 140.568845 
